<svg width="380" height="508" version="1.1" xmlns="http://www.w3.org/2000/svg" desc="Created with imagetracer.js version 1.2.6" ><path fill="rgb(255,255,255)" stroke="rgb(255,255,255)" stroke-width="1" opacity="0.7215686274509804" d="M 77.5 38 L 78 100.5 L 77 100.5 L 77.5 38 Z " /><path fill="rgb(255,255,255)" stroke="rgb(255,255,255)" stroke-width="1" opacity="0.7215686274509804" d="M 183.5 79 L 188 79.5 L 183.5 80 L 183.5 79 Z " /><path fill="rgb(255,255,255)" stroke="rgb(255,255,255)" stroke-width="1" opacity="0.7215686274509804" d="M 192.5 79 L 198 79.5 L 192.5 80 L 192.5 79 Z " /><path fill="rgb(255,255,255)" stroke="rgb(255,255,255)" stroke-width="1" opacity="0.7215686274509804" d="M 77.5 111 L 78 224.5 L 77 224.5 L 77.5 111 Z " /><path fill="rgb(255,255,255)" stroke="rgb(255,255,255)" stroke-width="1" opacity="0.7215686274509804" d="M 36.5 150 L 39.5 154 L 36.5 150 Z " /><path fill="rgb(255,255,255)" stroke="rgb(255,255,255)" stroke-width="1" opacity="0.7215686274509804" d="M 328.5 151 L 327.5 153 L 328.5 151 Z " /><path fill="rgb(255,255,255)" stroke="rgb(255,255,255)" stroke-width="1" opacity="0.7215686274509804" d="M 337.5 153 L 336.5 155 L 337.5 153 Z " /><path fill="rgb(255,255,255)" stroke="rgb(255,255,255)" stroke-width="1" opacity="0.7215686274509804" d="M 313.5 165 L 312.5 167 L 313.5 165 Z " /><path fill="rgb(255,255,255)" stroke="rgb(255,255,255)" stroke-width="1" opacity="0.7215686274509804" d="M 323.5 166 L 322.5 168 L 323.5 166 Z " /><path fill="rgb(255,255,255)" stroke="rgb(255,255,255)" stroke-width="1" opacity="0.7215686274509804" d="M 309.5 179 L 308.5 181 L 309.5 179 Z " /><path fill="rgb(255,255,255)" stroke="rgb(255,255,255)" stroke-width="1" opacity="0.7215686274509804" d="M 266.5 213 L 271.5 219 L 266.5 213 Z " /><path fill="rgb(255,255,255)" stroke="rgb(255,255,255)" stroke-width="1" opacity="0.7215686274509804" d="M 113.5 220 L 112.5 222 L 113.5 220 Z " /><path fill="rgb(255,255,255)" stroke="rgb(255,255,255)" stroke-width="1" opacity="0.7215686274509804" d="M 245.5 225 L 246.5 227 L 245.5 225 Z " /><path fill="rgb(255,255,255)" stroke="rgb(255,255,255)" stroke-width="1" opacity="0.7215686274509804" d="M 246.5 241 L 245.5 243 L 246.5 241 Z " /><path fill="rgb(255,255,255)" stroke="rgb(255,255,255)" stroke-width="1" opacity="0.7215686274509804" d="M 114.5 293 L 115.5 295 L 114.5 293 Z " /><path fill="rgb(0,0,0)" stroke="rgb(0,0,0)" stroke-width="1" opacity="0" d="M 8.5 0 L 372 0.5 L 296 37.5 L 295.5 100 Q 274.9 86.6 248.5 79 L 213.5 72 L 179.5 71 L 178.5 72 L 166.5 72 L 165.5 73 L 146.5 75 L 122.5 81 Q 97.6 88.5 78 100 L 78 37.5 L 76.5 36 L 19.5 7 L 8.5 1 L 8.5 0 Z " /><path fill="rgb(0,0,0)" stroke="rgb(0,0,0)" stroke-width="1" opacity="0" d="M 379.5 11 L 380 508 L 195 507.5 L 266 468 L 263 458.5 L 306 429.5 L 300 413.5 L 339 338.5 L 339 334.5 L 305 225.5 L 305 184.5 L 342 150.5 L 379.5 11 Z " /><path fill="rgb(0,0,0)" stroke="rgb(0,0,0)" stroke-width="1" opacity="0" d="M 0.5 12 L 35 149.5 L 69 184.5 L 69 227.5 Q 58.4 261.4 51 298.5 L 49 302.5 L 41 334.5 L 41 338.5 L 78 414.5 L 75 425.5 L 75 430.5 L 114 458.5 L 111 468 L 185 507.5 L 0 508 L 0.5 12 Z " /><path fill="rgb(0,0,0)" stroke="rgb(0,0,0)" stroke-width="1" opacity="0" d="M 10 12 L 69 42 L 68.5 171 L 43 144.5 L 10 12 Z " /><path fill="rgb(0,0,0)" stroke="rgb(0,0,0)" stroke-width="1" opacity="0" d="M 368.5 12 L 369 15.5 L 367 19.5 L 334 143.5 L 329.5 150 L 305.5 172 L 305 43.5 L 368.5 12 Z " /><path fill="rgb(0,0,0)" stroke="rgb(0,0,0)" stroke-width="1" opacity="0" d="M 178.5 80 L 213.5 81 L 247.5 88 L 273.5 98 L 290.5 107 L 296 111.5 L 296 225.5 L 288.5 242 Q 279.7 223.8 265.5 211 L 248.5 201 L 232.5 199 L 216.5 203 L 189.5 219 Q 177.5 209 161.5 203 L 149.5 200 L 134.5 200 Q 112.2 205.2 101 221.5 Q 93.8 230.8 89.5 243 L 78 224.5 L 78 111.5 L 97.5 100 L 120.5 91 L 152.5 83 L 165.5 82 L 166.5 81 L 177.5 81 L 178.5 80 Z " /><path fill="rgb(0,0,0)" stroke="rgb(0,0,0)" stroke-width="1" opacity="0" d="M 138.5 209 L 151.5 210 L 163.5 214 Q 178.5 221 190.5 231 Q 202.8 219.3 219.5 212 L 229.5 209 L 241.5 209 L 252.5 213 L 267 225.5 L 277 239.5 L 284 252.5 L 284 255.5 L 264.5 293 L 189.5 257 L 115.5 293 L 96 254.5 L 96 250.5 Q 102.8 229.3 118.5 217 L 129.5 211 L 138.5 209 Z M 127 222 L 125 223 L 119 231 L 119 257 L 121 260 L 127 263 Q 146 265 157 258 L 167 247 L 171 233 L 170 227 L 166 222 L 127 222 Z M 235 222 L 233 223 Q 227 226 226 234 L 228 241 L 236 246 L 241 246 L 247 243 L 250 238 Q 251 229 247 226 Q 244 220 235 222 Z " /><path fill="rgb(0,0,0)" stroke="rgb(0,0,0)" stroke-width="1" opacity="0" d="M 75.5 237 L 85 252.5 L 109 300.5 L 83 392.5 L 82 400 Q 79.3 401.1 80 398.5 L 50 335.5 L 75.5 237 Z " /><path fill="rgb(0,0,0)" stroke="rgb(0,0,0)" stroke-width="1" opacity="0" d="M 299.5 240 L 304 250.5 Q 310 276.5 319 299.5 L 329 337.5 L 296.5 401 L 271 300.5 L 293 257.5 L 299.5 240 Z " /><path fill="rgb(0,0,0)" stroke="rgb(0,0,0)" stroke-width="1" opacity="0" d="M 188.5 268 L 191.5 268 L 224 284.5 L 255 462.5 L 195.5 497 L 188.5 499 L 122 462.5 L 126 446.5 L 126 441.5 L 142 360.5 L 149 317.5 L 155 290.5 L 155 285.5 L 157.5 283 L 188.5 268 Z M 177 284 L 175 286 L 175 302 L 178 309 L 186 314 Q 195 316 199 312 Q 203 308 205 302 L 205 286 L 204 284 L 177 284 Z " /><path fill="rgb(0,0,0)" stroke="rgb(0,0,0)" stroke-width="1" opacity="0" d="M 145.5 289 L 145 290.5 L 145 295.5 L 131 365.5 L 124 408.5 L 121 419.5 L 117 445.5 L 115.5 448 L 84 425.5 L 116 305.5 L 118.5 302 L 145.5 289 Z " /><path fill="rgb(0,0,0)" stroke="rgb(0,0,0)" stroke-width="1" opacity="0" d="M 234.5 289 L 263 303.5 L 290 414.5 L 295 425.5 L 261.5 449 L 234.5 289 Z " /><path fill="rgb(255,255,255)" stroke="rgb(255,255,255)" stroke-width="1" opacity="0.9137254901960784" d="M 179.5 79 L 183 79.5 L 179.5 80 L 179.5 79 Z " /><path fill="rgb(255,255,255)" stroke="rgb(255,255,255)" stroke-width="1" opacity="0.9137254901960784" d="M 198.5 79 L 201 79.5 L 198.5 80 L 198.5 79 Z " /><path fill="rgb(255,255,255)" stroke="rgb(255,255,255)" stroke-width="1" opacity="0.9137254901960784" d="M 78.5 109 L 77.5 111 L 78.5 109 Z " /><path fill="rgb(255,255,255)" stroke="rgb(255,255,255)" stroke-width="1" opacity="0.9137254901960784" d="M 340.5 150 L 338.5 153 L 340.5 150 Z " /><path fill="rgb(255,255,255)" stroke="rgb(255,255,255)" stroke-width="1" opacity="0.9137254901960784" d="M 326.5 153 L 321.5 159 L 326.5 153 Z " /><path fill="rgb(255,255,255)" stroke="rgb(255,255,255)" stroke-width="1" opacity="0.9137254901960784" d="M 40.5 154 L 69.5 184 L 40.5 154 Z " /><path fill="rgb(255,255,255)" stroke="rgb(255,255,255)" stroke-width="1" opacity="0.9137254901960784" d="M 328.5 161 L 324.5 166 L 328.5 161 Z " /><path fill="rgb(255,255,255)" stroke="rgb(255,255,255)" stroke-width="1" opacity="0.9137254901960784" d="M 311.5 167 L 307.5 172 L 311.5 167 Z " /><path fill="rgb(255,255,255)" stroke="rgb(255,255,255)" stroke-width="1" opacity="0.9137254901960784" d="M 314.5 174 L 310.5 179 L 314.5 174 Z " /><path fill="rgb(255,255,255)" stroke="rgb(255,255,255)" stroke-width="1" opacity="0.9137254901960784" d="M 140.5 208 L 144 208.5 L 140.5 209 L 140.5 208 Z " /><path fill="rgb(255,255,255)" stroke="rgb(255,255,255)" stroke-width="1" opacity="0.9137254901960784" d="M 261.5 209 L 262.5 211 L 261.5 209 Z " /><path fill="rgb(255,255,255)" stroke="rgb(255,255,255)" stroke-width="1" opacity="0.9137254901960784" d="M 112.5 211 L 111.5 213 L 112.5 211 Z " /><path fill="rgb(255,255,255)" stroke="rgb(255,255,255)" stroke-width="1" opacity="0.9137254901960784" d="M 116.5 217 L 114.5 220 L 116.5 217 Z " /><path fill="rgb(255,255,255)" stroke="rgb(255,255,255)" stroke-width="1" opacity="0.9137254901960784" d="M 103.5 220 L 102.5 222 L 103.5 220 Z " /><path fill="rgb(255,255,255)" stroke="rgb(255,255,255)" stroke-width="1" opacity="0.9137254901960784" d="M 111.5 222 L 109.5 225 L 111.5 222 Z " /><path fill="rgb(255,255,255)" stroke="rgb(255,255,255)" stroke-width="1" opacity="0.9137254901960784" d="M 274.5 222 L 275.5 224 L 274.5 222 Z " /><path fill="rgb(255,255,255)" stroke="rgb(255,255,255)" stroke-width="1" opacity="0.9137254901960784" d="M 123.5 225 L 121.5 228 L 123.5 225 Z " /><path fill="rgb(255,255,255)" stroke="rgb(255,255,255)" stroke-width="1" opacity="0.9137254901960784" d="M 185.5 226 L 186.5 228 L 185.5 226 Z " /><path fill="rgb(255,255,255)" stroke="rgb(255,255,255)" stroke-width="1" opacity="0.9137254901960784" d="M 194.5 226 L 193.5 228 L 194.5 226 Z " /><path fill="rgb(255,255,255)" stroke="rgb(255,255,255)" stroke-width="1" opacity="0.9137254901960784" d="M 268.5 226 L 269.5 228 L 268.5 226 Z " /><path fill="rgb(255,255,255)" stroke="rgb(255,255,255)" stroke-width="1" opacity="0.9137254901960784" d="M 119.5 233 L 120 253.5 L 119 253.5 L 119.5 233 Z " /><path fill="rgb(255,255,255)" stroke="rgb(255,255,255)" stroke-width="1" opacity="0.9137254901960784" d="M 157.5 255 L 156.5 257 L 157.5 255 Z " /><path fill="rgb(255,255,255)" stroke="rgb(255,255,255)" stroke-width="1" opacity="0.9137254901960784" d="M 265.5 293 L 264.5 295 L 265.5 293 Z " /><path fill="rgb(255,255,255)" stroke="rgb(255,255,255)" stroke-width="1" opacity="0.9137254901960784" d="M 201.5 307 L 200.5 309 L 201.5 307 Z " /><path fill="rgb(255,255,255)" stroke="rgb(255,255,255)" stroke-width="1" opacity="0.9137254901960784" d="M 181.5 310 L 182.5 312 L 181.5 310 Z " /><path fill="rgb(255,255,255)" stroke="rgb(255,255,255)" stroke-width="1" opacity="0.9137254901960784" d="M 189.5 313 L 192 313.5 L 189.5 314 L 189.5 313 Z " /><path fill="rgb(255,255,255)" stroke="rgb(255,255,255)" stroke-width="1" opacity="0.9137254901960784" d="M 295.5 401 L 296.5 403 L 295.5 401 Z " /><path fill="rgb(255,255,255)" stroke="rgb(255,255,255)" stroke-width="1" opacity="0.9137254901960784" d="M 75.5 429 L 76.5 431 L 75.5 429 Z " /><path fill="rgb(255,255,255)" stroke="rgb(255,255,255)" stroke-width="1" opacity="0.9137254901960784" d="M 79.5 432 L 80.5 434 L 79.5 432 Z " /><path fill="rgb(255,255,255)" stroke="rgb(255,255,255)" stroke-width="1" opacity="0.9137254901960784" d="M 97.5 436 L 98.5 438 L 97.5 436 Z " /><path fill="rgb(255,255,255)" stroke="rgb(255,255,255)" stroke-width="1" opacity="0.9137254901960784" d="M 86.5 437 L 87.5 439 L 86.5 437 Z " /><path fill="rgb(255,255,255)" stroke="rgb(255,255,255)" stroke-width="1" opacity="0.9137254901960784" d="M 104.5 441 L 105.5 443 L 104.5 441 Z " /><path fill="rgb(255,255,255)" stroke="rgb(255,255,255)" stroke-width="1" opacity="0.9137254901960784" d="M 111.5 455 L 112.5 457 L 111.5 455 Z " /><path fill="rgb(255,255,255)" stroke="rgb(255,255,255)" stroke-width="1" opacity="1" d="M 0 0 L 5.5 0 L 77 37 L 77 100.5 L 79.5 101 L 105.5 88 L 141.5 77 L 158.5 74 L 165.5 74 L 166.5 73 L 176.5 73 L 177.5 72 L 202.5 72 L 203.5 73 L 213.5 73 L 214.5 74 L 227.5 75 L 248.5 80 L 268.5 87 L 285.5 95 L 294.5 101 L 297 101 L 297 38.5 L 298.5 37 L 374.5 0 L 380 0 L 380 7.5 L 378 11.5 L 342 146.5 L 341 149.5 L 329.5 161 L 304 184.5 L 304 225.5 L 335 324.5 L 338 338.5 Q 316.8 375.3 299 415.5 L 305 430 L 262 458.5 L 265 466.5 L 194.5 507 L 187.5 508 L 112 466.5 L 115 458.5 L 76 429.5 L 78 419.5 L 78 412.5 L 42 338.5 L 42 334.5 L 70 227.5 L 70 183.5 L 36 149.5 L 9 39.5 L 0 7.5 L 0 0 Z M 10 10 L 9 15 L 42 145 L 70 173 L 70 43 L 10 10 Z M 370 10 L 304 43 L 305 174 L 322 159 L 335 146 L 371 14 Q 372 9 370 10 Z M 180 79 L 179 80 L 168 80 L 167 81 L 153 82 L 124 89 Q 97 97 77 111 L 77 225 L 90 245 Q 95 230 104 220 Q 116 205 139 201 L 153 202 L 163 205 Q 178 211 190 221 Q 205 207 229 201 Q 239 200 247 202 Q 257 205 264 211 Q 279 223 287 243 L 290 244 L 297 226 L 297 111 Q 276 95 248 87 L 213 80 L 180 79 Z M 141 208 L 127 211 L 117 217 Q 102 230 95 251 L 95 256 L 116 295 L 189 259 L 192 259 L 265 295 L 285 256 Q 280 239 270 228 Q 260 213 242 208 L 230 208 L 222 210 Q 204 217 192 229 L 189 229 Q 178 219 164 213 L 152 209 L 141 208 Z M 76 235 L 49 336 L 82 403 L 110 301 L 88 256 L 76 235 Z M 301 237 L 270 301 L 291 382 L 295 402 L 297 403 L 331 337 L 301 237 Z M 189 267 L 155 283 L 144 340 L 144 345 L 141 356 L 139 372 L 136 383 L 134 399 L 131 410 L 131 415 L 128 426 L 126 442 L 123 453 L 123 458 L 121 464 L 190 501 L 256 464 L 225 283 L 192 267 L 189 267 Z M 145 288 L 116 302 L 83 427 L 117 450 L 126 403 L 126 398 L 129 387 L 129 382 L 132 371 L 132 366 L 134 360 L 134 355 L 137 344 L 137 339 L 140 328 L 142 312 L 145 301 L 145 296 L 147 290 Q 148 287 145 288 Z M 233 288 L 235 297 L 239 326 L 241 332 L 245 361 L 247 367 L 252 402 L 254 408 L 260 449 L 262 450 L 296 427 L 291 415 L 290 407 L 264 302 L 233 288 Z " /><path fill="rgb(255,255,255)" stroke="rgb(255,255,255)" stroke-width="1" opacity="1" d="M 128.5 223 L 164.5 223 L 168 225.5 Q 170.7 227.8 170 233.5 Q 167.6 247.6 158.5 255 Q 148.7 264.7 126.5 262 L 121 257.5 L 120 255.5 L 120 230.5 L 125.5 224 L 128.5 223 Z " /><path fill="rgb(255,255,255)" stroke="rgb(255,255,255)" stroke-width="1" opacity="1" d="M 235.5 223 Q 245.3 222.3 248 228.5 L 249 237.5 L 243.5 244 L 235.5 245 L 230 241.5 Q 227 238.5 227 232.5 L 231.5 225 L 235.5 223 Z " /><path fill="rgb(255,255,255)" stroke="rgb(255,255,255)" stroke-width="1" opacity="1" d="M 176 286 L 204 286 L 204 301.5 L 200 310 L 194.5 313 L 185.5 313 L 180 310 L 176 301.5 L 176 286 Z " /><path fill="rgb(255,255,255)" stroke="rgb(255,255,255)" stroke-width="1" opacity="0.5411764705882353" d="M 10.5 11 L 10 12.5 L 9.5 14 L 9 12.5 L 10.5 11 Z " /><path fill="rgb(255,255,255)" stroke="rgb(255,255,255)" stroke-width="1" opacity="0.5411764705882353" d="M 296.5 38 L 297 101 L 295 100.5 L 296 99.5 L 296.5 38 Z " /><path fill="rgb(255,255,255)" stroke="rgb(255,255,255)" stroke-width="1" opacity="0.5411764705882353" d="M 304.5 43 L 305.5 172 L 307 171.5 L 304 173 L 304.5 43 Z " /><path fill="rgb(255,255,255)" stroke="rgb(255,255,255)" stroke-width="1" opacity="0.5411764705882353" d="M 187.5 71 L 193 71.5 L 187.5 72 L 187.5 71 Z " /><path fill="rgb(255,255,255)" stroke="rgb(255,255,255)" stroke-width="1" opacity="0.5411764705882353" d="M 169.5 72 L 173 72.5 L 169.5 73 L 169.5 72 Z " /><path fill="rgb(255,255,255)" stroke="rgb(255,255,255)" stroke-width="1" opacity="0.5411764705882353" d="M 207.5 72 L 211 72.5 L 207.5 73 L 207.5 72 Z " /><path fill="rgb(255,255,255)" stroke="rgb(255,255,255)" stroke-width="1" opacity="0.5411764705882353" d="M 160.5 73 L 163 73.5 L 160.5 74 L 160.5 73 Z " /><path fill="rgb(255,255,255)" stroke="rgb(255,255,255)" stroke-width="1" opacity="0.5411764705882353" d="M 188.5 79 L 192 79.5 L 188.5 80 L 188.5 79 Z " /><path fill="rgb(255,255,255)" stroke="rgb(255,255,255)" stroke-width="1" opacity="0.5411764705882353" d="M 169.5 80 L 174 80.5 L 169.5 81 L 169.5 80 Z " /><path fill="rgb(255,255,255)" stroke="rgb(255,255,255)" stroke-width="1" opacity="0.5411764705882353" d="M 207.5 80 L 210 80.5 L 207.5 81 L 207.5 80 Z " /><path fill="rgb(255,255,255)" stroke="rgb(255,255,255)" stroke-width="1" opacity="0.5411764705882353" d="M 161.5 81 L 164 81.5 L 161.5 82 L 161.5 81 Z " /><path fill="rgb(255,255,255)" stroke="rgb(255,255,255)" stroke-width="1" opacity="0.5411764705882353" d="M 288.5 105 L 289.5 107 L 288.5 105 Z " /><path fill="rgb(255,255,255)" stroke="rgb(255,255,255)" stroke-width="1" opacity="0.5411764705882353" d="M 293.5 108 L 294.5 110 L 293.5 108 Z " /><path fill="rgb(255,255,255)" stroke="rgb(255,255,255)" stroke-width="1" opacity="0.5411764705882353" d="M 296.5 110 L 297 224.5 L 296 224.5 L 296.5 110 Z " /><path fill="rgb(255,255,255)" stroke="rgb(255,255,255)" stroke-width="1" opacity="0.5411764705882353" d="M 43.5 146 L 69.5 173 L 43.5 146 Z " /><path fill="rgb(255,255,255)" stroke="rgb(255,255,255)" stroke-width="1" opacity="0.5411764705882353" d="M 333.5 146 L 329.5 151 L 333.5 146 Z " /><path fill="rgb(255,255,255)" stroke="rgb(255,255,255)" stroke-width="1" opacity="0.5411764705882353" d="M 335.5 155 L 330.5 161 L 335.5 155 Z " /><path fill="rgb(255,255,255)" stroke="rgb(255,255,255)" stroke-width="1" opacity="0.5411764705882353" d="M 320.5 158 L 314.5 165 L 320.5 158 Z " /><path fill="rgb(255,255,255)" stroke="rgb(255,255,255)" stroke-width="1" opacity="0.5411764705882353" d="M 321.5 168 L 316.5 174 L 321.5 168 Z " /><path fill="rgb(255,255,255)" stroke="rgb(255,255,255)" stroke-width="1" opacity="0.5411764705882353" d="M 307.5 181 L 305.5 184 L 307.5 181 Z " /><path fill="rgb(255,255,255)" stroke="rgb(255,255,255)" stroke-width="1" opacity="0.5411764705882353" d="M 304.5 185 L 305 224.5 L 304 224.5 L 304.5 185 Z " /><path fill="rgb(255,255,255)" stroke="rgb(255,255,255)" stroke-width="1" opacity="0.5411764705882353" d="M 230.5 200 L 241 200.5 L 230.5 201 L 230.5 200 Z " /><path fill="rgb(255,255,255)" stroke="rgb(255,255,255)" stroke-width="1" opacity="0.5411764705882353" d="M 231.5 208 L 240 208.5 L 231.5 209 L 231.5 208 Z " /><path fill="rgb(255,255,255)" stroke="rgb(255,255,255)" stroke-width="1" opacity="0.5411764705882353" d="M 114.5 209 L 113.5 211 L 114.5 209 Z " /><path fill="rgb(255,255,255)" stroke="rgb(255,255,255)" stroke-width="1" opacity="0.5411764705882353" d="M 264.5 211 L 265.5 213 L 264.5 211 Z " /><path fill="rgb(255,255,255)" stroke="rgb(255,255,255)" stroke-width="1" opacity="0.5411764705882353" d="M 109.5 213 L 104.5 219 L 109.5 213 Z " /><path fill="rgb(255,255,255)" stroke="rgb(255,255,255)" stroke-width="1" opacity="0.5411764705882353" d="M 118.5 216 L 117.5 218 L 118.5 216 Z " /><path fill="rgb(255,255,255)" stroke="rgb(255,255,255)" stroke-width="1" opacity="0.5411764705882353" d="M 187.5 218 L 188.5 220 L 187.5 218 Z " /><path fill="rgb(255,255,255)" stroke="rgb(255,255,255)" stroke-width="1" opacity="0.5411764705882353" d="M 260.5 218 L 266.5 225 L 260.5 218 Z " /><path fill="rgb(255,255,255)" stroke="rgb(255,255,255)" stroke-width="1" opacity="0.5411764705882353" d="M 272.5 219 L 274.5 222 L 272.5 219 Z " /><path fill="rgb(255,255,255)" stroke="rgb(255,255,255)" stroke-width="1" opacity="0.5411764705882353" d="M 101.5 222 L 100.5 224 L 101.5 222 Z " /><path fill="rgb(255,255,255)" stroke="rgb(255,255,255)" stroke-width="1" opacity="0.5411764705882353" d="M 129.5 222 L 163 222.5 L 129.5 223 L 129.5 222 Z " /><path fill="rgb(255,255,255)" stroke="rgb(255,255,255)" stroke-width="1" opacity="0.5411764705882353" d="M 167.5 224 L 168.5 226 L 167.5 224 Z " /><path fill="rgb(255,255,255)" stroke="rgb(255,255,255)" stroke-width="1" opacity="0.5411764705882353" d="M 183.5 225 L 184.5 227 L 183.5 225 Z " /><path fill="rgb(255,255,255)" stroke="rgb(255,255,255)" stroke-width="1" opacity="0.5411764705882353" d="M 196.5 225 L 195.5 227 L 196.5 225 Z " /><path fill="rgb(255,255,255)" stroke="rgb(255,255,255)" stroke-width="1" opacity="0.5411764705882353" d="M 108.5 226 L 107.5 228 L 108.5 226 Z " /><path fill="rgb(255,255,255)" stroke="rgb(255,255,255)" stroke-width="1" opacity="0.5411764705882353" d="M 97.5 228 L 96.5 230 L 97.5 228 Z " /><path fill="rgb(255,255,255)" stroke="rgb(255,255,255)" stroke-width="1" opacity="0.5411764705882353" d="M 187.5 228 L 188.5 230 L 187.5 228 Z " /><path fill="rgb(255,255,255)" stroke="rgb(255,255,255)" stroke-width="1" opacity="0.5411764705882353" d="M 269.5 228 L 270.5 230 L 269.5 228 Z " /><path fill="rgb(255,255,255)" stroke="rgb(255,255,255)" stroke-width="1" opacity="0.5411764705882353" d="M 249.5 232 L 250 235.5 L 249 235.5 L 249.5 232 Z " /><path fill="rgb(255,255,255)" stroke="rgb(255,255,255)" stroke-width="1" opacity="0.5411764705882353" d="M 300.5 238 L 299.5 240 L 300.5 238 Z " /><path fill="rgb(255,255,255)" stroke="rgb(255,255,255)" stroke-width="1" opacity="0.5411764705882353" d="M 229.5 241 L 230.5 243 L 229.5 241 Z " /><path fill="rgb(255,255,255)" stroke="rgb(255,255,255)" stroke-width="1" opacity="0.5411764705882353" d="M 289.5 242 L 288.5 244 L 289.5 242 Z " /><path fill="rgb(255,255,255)" stroke="rgb(255,255,255)" stroke-width="1" opacity="0.5411764705882353" d="M 237.5 245 L 240 245.5 L 237.5 246 L 237.5 245 Z " /><path fill="rgb(255,255,255)" stroke="rgb(255,255,255)" stroke-width="1" opacity="0.5411764705882353" d="M 165.5 247 L 164.5 249 L 165.5 247 Z " /><path fill="rgb(255,255,255)" stroke="rgb(255,255,255)" stroke-width="1" opacity="0.5411764705882353" d="M 162.5 251 L 158.5 256 L 162.5 251 Z " /><path fill="rgb(255,255,255)" stroke="rgb(255,255,255)" stroke-width="1" opacity="0.5411764705882353" d="M 127.5 262 L 142 262.5 L 127.5 263 L 127.5 262 Z " /><path fill="rgb(255,255,255)" stroke="rgb(255,255,255)" stroke-width="1" opacity="0.5411764705882353" d="M 176.5 285 L 204 285.5 L 176.5 286 L 176.5 285 Z " /><path fill="rgb(255,255,255)" stroke="rgb(255,255,255)" stroke-width="1" opacity="0.5411764705882353" d="M 225.5 287 L 226 289.5 L 225 289.5 L 225.5 287 Z " /><path fill="rgb(255,255,255)" stroke="rgb(255,255,255)" stroke-width="1" opacity="0.5411764705882353" d="M 240.5 327 L 241 329.5 L 240 329.5 L 240.5 327 Z " /><path fill="rgb(255,255,255)" stroke="rgb(255,255,255)" stroke-width="1" opacity="0.5411764705882353" d="M 236.5 351 L 237 353.5 L 236 353.5 L 236.5 351 Z " /><path fill="rgb(255,255,255)" stroke="rgb(255,255,255)" stroke-width="1" opacity="0.5411764705882353" d="M 246.5 362 L 247 364.5 L 246 364.5 L 246.5 362 Z " /><path fill="rgb(255,255,255)" stroke="rgb(255,255,255)" stroke-width="1" opacity="0.5411764705882353" d="M 243.5 392 L 244 394.5 L 243 394.5 L 243.5 392 Z " /><path fill="rgb(255,255,255)" stroke="rgb(255,255,255)" stroke-width="1" opacity="0.5411764705882353" d="M 254.5 409 L 255 411.5 L 254 411.5 L 254.5 409 Z " /><path fill="rgb(255,255,255)" stroke="rgb(255,255,255)" stroke-width="1" opacity="0.5411764705882353" d="M 295.5 426 L 294.5 428 L 295.5 426 Z " /><path fill="rgb(255,255,255)" stroke="rgb(255,255,255)" stroke-width="1" opacity="0.5411764705882353" d="M 88.5 429 L 89.5 431 L 88.5 429 Z " /><path fill="rgb(255,255,255)" stroke="rgb(255,255,255)" stroke-width="1" opacity="0.5411764705882353" d="M 77.5 431 L 78.5 433 L 77.5 431 Z " /><path fill="rgb(255,255,255)" stroke="rgb(255,255,255)" stroke-width="1" opacity="0.5411764705882353" d="M 92.5 432 L 93.5 434 L 92.5 432 Z " /><path fill="rgb(255,255,255)" stroke="rgb(255,255,255)" stroke-width="1" opacity="0.5411764705882353" d="M 84.5 436 L 85.5 438 L 84.5 436 Z " /><path fill="rgb(255,255,255)" stroke="rgb(255,255,255)" stroke-width="1" opacity="0.5411764705882353" d="M 99.5 437 L 100.5 439 L 99.5 437 Z " /><path fill="rgb(255,255,255)" stroke="rgb(255,255,255)" stroke-width="1" opacity="0.5411764705882353" d="M 91.5 441 L 92.5 443 L 91.5 441 Z " /><path fill="rgb(255,255,255)" stroke="rgb(255,255,255)" stroke-width="1" opacity="0.5411764705882353" d="M 106.5 442 L 107.5 444 L 106.5 442 Z " /><path fill="rgb(255,255,255)" stroke="rgb(255,255,255)" stroke-width="1" opacity="0.5411764705882353" d="M 95.5 444 L 96.5 446 L 95.5 444 Z " /><path fill="rgb(255,255,255)" stroke="rgb(255,255,255)" stroke-width="1" opacity="0.5411764705882353" d="M 113.5 447 L 114.5 449 L 113.5 447 Z " /><path fill="rgb(255,255,255)" stroke="rgb(255,255,255)" stroke-width="1" opacity="0.5411764705882353" d="M 102.5 449 L 103.5 451 L 102.5 449 Z " /><path fill="rgb(255,255,255)" stroke="rgb(255,255,255)" stroke-width="1" opacity="0.5411764705882353" d="M 109.5 454 L 110.5 456 L 109.5 454 Z " /><path fill="rgb(255,255,255)" stroke="rgb(255,255,255)" stroke-width="1" opacity="0.5411764705882353" d="M 111.5 466 L 112.5 468 L 111.5 466 Z " /><path fill="rgb(255,255,255)" stroke="rgb(255,255,255)" stroke-width="1" opacity="0.19215686274509805" d="M 369 11 L 371 11.5 L 369.5 15 L 369 11 Z " /><path fill="rgb(255,255,255)" stroke="rgb(255,255,255)" stroke-width="1" opacity="0.19215686274509805" d="M 368.5 16 L 369 18.5 L 366.5 26 L 366 23.5 L 368.5 16 Z " /><path fill="rgb(255,255,255)" stroke="rgb(255,255,255)" stroke-width="1" opacity="0.19215686274509805" d="M 365.5 27 L 366 29.5 L 363.5 37 L 363 34.5 L 365.5 27 Z " /><path fill="rgb(255,255,255)" stroke="rgb(255,255,255)" stroke-width="1" opacity="0.19215686274509805" d="M 297.5 36 L 296.5 38 L 297.5 36 Z " /><path fill="rgb(255,255,255)" stroke="rgb(255,255,255)" stroke-width="1" opacity="0.19215686274509805" d="M 362.5 38 L 363 40.5 L 360.5 48 L 360 45.5 L 362.5 38 Z " /><path fill="rgb(255,255,255)" stroke="rgb(255,255,255)" stroke-width="1" opacity="0.19215686274509805" d="M 69.5 43 L 70 171.5 L 69 171.5 L 69.5 43 Z " /><path fill="rgb(255,255,255)" stroke="rgb(255,255,255)" stroke-width="1" opacity="0.19215686274509805" d="M 359.5 49 L 360 51.5 L 357.5 59 L 357 56.5 L 359.5 49 Z " /><path fill="rgb(255,255,255)" stroke="rgb(255,255,255)" stroke-width="1" opacity="0.19215686274509805" d="M 356.5 60 L 357 62.5 L 354.5 70 L 354 67.5 L 356.5 60 Z " /><path fill="rgb(255,255,255)" stroke="rgb(255,255,255)" stroke-width="1" opacity="0.19215686274509805" d="M 179.5 71 L 187 71.5 L 179.5 72 L 179.5 71 Z " /><path fill="rgb(255,255,255)" stroke="rgb(255,255,255)" stroke-width="1" opacity="0.19215686274509805" d="M 193.5 71 L 201 71.5 L 193.5 72 L 193.5 71 Z " /><path fill="rgb(255,255,255)" stroke="rgb(255,255,255)" stroke-width="1" opacity="0.19215686274509805" d="M 353.5 71 L 354 73.5 L 351.5 81 L 351 78.5 L 353.5 71 Z " /><path fill="rgb(255,255,255)" stroke="rgb(255,255,255)" stroke-width="1" opacity="0.19215686274509805" d="M 166.5 72 L 169 72.5 L 166.5 73 L 166.5 72 Z " /><path fill="rgb(255,255,255)" stroke="rgb(255,255,255)" stroke-width="1" opacity="0.19215686274509805" d="M 211.5 72 L 214 72.5 L 211.5 73 L 211.5 72 Z " /><path fill="rgb(255,255,255)" stroke="rgb(255,255,255)" stroke-width="1" opacity="0.19215686274509805" d="M 174.5 80 L 178 80.5 L 174.5 81 L 174.5 80 Z " /><path fill="rgb(255,255,255)" stroke="rgb(255,255,255)" stroke-width="1" opacity="0.19215686274509805" d="M 203.5 80 L 207 80.5 L 203.5 81 L 203.5 80 Z " /><path fill="rgb(255,255,255)" stroke="rgb(255,255,255)" stroke-width="1" opacity="0.19215686274509805" d="M 214.5 81 L 217 81.5 L 214.5 82 L 214.5 81 Z " /><path fill="rgb(255,255,255)" stroke="rgb(255,255,255)" stroke-width="1" opacity="0.19215686274509805" d="M 350.5 82 L 351 84.5 L 348.5 92 L 348 89.5 L 350.5 82 Z " /><path fill="rgb(255,255,255)" stroke="rgb(255,255,255)" stroke-width="1" opacity="0.19215686274509805" d="M 347.5 93 L 348 95.5 L 345.5 103 L 345 100.5 L 347.5 93 Z " /><path fill="rgb(255,255,255)" stroke="rgb(255,255,255)" stroke-width="1" opacity="0.19215686274509805" d="M 344.5 104 L 345 106.5 L 342.5 114 L 342 111.5 L 344.5 104 Z " /><path fill="rgb(255,255,255)" stroke="rgb(255,255,255)" stroke-width="1" opacity="0.19215686274509805" d="M 81.5 108 L 80.5 110 L 81.5 108 Z " /><path fill="rgb(255,255,255)" stroke="rgb(255,255,255)" stroke-width="1" opacity="0.19215686274509805" d="M 341.5 115 L 342 117.5 L 339.5 125 L 339 122.5 L 341.5 115 Z " /><path fill="rgb(255,255,255)" stroke="rgb(255,255,255)" stroke-width="1" opacity="0.19215686274509805" d="M 338.5 126 L 339 128.5 L 336.5 136 L 336 133.5 L 338.5 126 Z " /><path fill="rgb(255,255,255)" stroke="rgb(255,255,255)" stroke-width="1" opacity="0.19215686274509805" d="M 335.5 137 L 336 139.5 L 333.5 146 L 333 144.5 L 335.5 137 Z " /><path fill="rgb(255,255,255)" stroke="rgb(255,255,255)" stroke-width="1" opacity="0.19215686274509805" d="M 341.5 149 L 342 150.5 L 337 154.5 L 341.5 149 Z " /><path fill="rgb(255,255,255)" stroke="rgb(255,255,255)" stroke-width="1" opacity="0.19215686274509805" d="M 328.5 150 L 321.5 158 L 328.5 150 Z " /><path fill="rgb(255,255,255)" stroke="rgb(255,255,255)" stroke-width="1" opacity="0.19215686274509805" d="M 36.5 151 L 70 184.5 L 70 224.5 L 69 224.5 L 69 184.5 L 36.5 151 Z " /><path fill="rgb(255,255,255)" stroke="rgb(255,255,255)" stroke-width="1" opacity="0.19215686274509805" d="M 329.5 161 L 323.5 168 L 329.5 161 Z " /><path fill="rgb(255,255,255)" stroke="rgb(255,255,255)" stroke-width="1" opacity="0.19215686274509805" d="M 315.5 162 L 307.5 171 L 315.5 162 Z " /><path fill="rgb(255,255,255)" stroke="rgb(255,255,255)" stroke-width="1" opacity="0.19215686274509805" d="M 315.5 174 L 309.5 181 L 315.5 174 Z " /><path fill="rgb(255,255,255)" stroke="rgb(255,255,255)" stroke-width="1" opacity="0.19215686274509805" d="M 232.5 199 L 239 199.5 L 232.5 200 L 232.5 199 Z " /><path fill="rgb(255,255,255)" stroke="rgb(255,255,255)" stroke-width="1" opacity="0.19215686274509805" d="M 134.5 200 L 149.5 200 L 164 204.5 L 162.5 205 L 149.5 201 L 134.5 201 L 134.5 200 Z " /><path fill="rgb(255,255,255)" stroke="rgb(255,255,255)" stroke-width="1" opacity="0.19215686274509805" d="M 226.5 200 L 230 200.5 L 226.5 201 L 226.5 200 Z " /><path fill="rgb(255,255,255)" stroke="rgb(255,255,255)" stroke-width="1" opacity="0.19215686274509805" d="M 241.5 200 L 245 200.5 L 241.5 201 L 241.5 200 Z " /><path fill="rgb(255,255,255)" stroke="rgb(255,255,255)" stroke-width="1" opacity="0.19215686274509805" d="M 130.5 201 L 133 201.5 L 130.5 202 L 130.5 201 Z " /><path fill="rgb(255,255,255)" stroke="rgb(255,255,255)" stroke-width="1" opacity="0.19215686274509805" d="M 222.5 201 L 225 201.5 L 222.5 202 L 222.5 201 Z " /><path fill="rgb(255,255,255)" stroke="rgb(255,255,255)" stroke-width="1" opacity="0.19215686274509805" d="M 246.5 201 L 251 202.5 L 249.5 203 L 246.5 202 L 246.5 201 Z " /><path fill="rgb(255,255,255)" stroke="rgb(255,255,255)" stroke-width="1" opacity="0.19215686274509805" d="M 126.5 202 L 129 202.5 L 124.5 204 L 124.5 203 L 126.5 202 Z " /><path fill="rgb(255,255,255)" stroke="rgb(255,255,255)" stroke-width="1" opacity="0.19215686274509805" d="M 216.5 203 L 218 203.5 L 212.5 206 L 212.5 205 L 216.5 203 Z " /><path fill="rgb(255,255,255)" stroke="rgb(255,255,255)" stroke-width="1" opacity="0.19215686274509805" d="M 252.5 203 L 257 205.5 L 255.5 205 Q 251.7 204.8 252.5 203 Z " /><path fill="rgb(255,255,255)" stroke="rgb(255,255,255)" stroke-width="1" opacity="0.19215686274509805" d="M 165.5 205 L 178 211.5 L 176.5 211 L 165.5 206 L 165.5 205 Z " /><path fill="rgb(255,255,255)" stroke="rgb(255,255,255)" stroke-width="1" opacity="0.19215686274509805" d="M 118.5 206 L 117.5 208 L 115.5 209 L 116.5 207 L 118.5 206 Z " /><path fill="rgb(255,255,255)" stroke="rgb(255,255,255)" stroke-width="1" opacity="0.19215686274509805" d="M 258.5 206 L 259.5 208 L 258.5 206 Z " /><path fill="rgb(255,255,255)" stroke="rgb(255,255,255)" stroke-width="1" opacity="0.19215686274509805" d="M 208.5 207 L 207.5 209 L 205.5 210 L 206.5 208 L 208.5 207 Z " /><path fill="rgb(255,255,255)" stroke="rgb(255,255,255)" stroke-width="1" opacity="0.19215686274509805" d="M 261.5 208 L 263.5 211 L 261.5 208 Z " /><path fill="rgb(255,255,255)" stroke="rgb(255,255,255)" stroke-width="1" opacity="0.19215686274509805" d="M 113.5 209 L 110.5 213 L 113.5 209 Z " /><path fill="rgb(255,255,255)" stroke="rgb(255,255,255)" stroke-width="1" opacity="0.19215686274509805" d="M 145.5 209 L 148 209.5 L 145.5 210 L 145.5 209 Z " /><path fill="rgb(255,255,255)" stroke="rgb(255,255,255)" stroke-width="1" opacity="0.19215686274509805" d="M 203.5 210 L 202.5 212 L 196.5 216 L 198.5 213 L 203.5 210 Z " /><path fill="rgb(255,255,255)" stroke="rgb(255,255,255)" stroke-width="1" opacity="0.19215686274509805" d="M 265.5 211 L 272.5 219 L 265.5 211 Z " /><path fill="rgb(255,255,255)" stroke="rgb(255,255,255)" stroke-width="1" opacity="0.19215686274509805" d="M 179.5 212 L 180.5 214 L 179.5 212 Z " /><path fill="rgb(255,255,255)" stroke="rgb(255,255,255)" stroke-width="1" opacity="0.19215686274509805" d="M 182.5 214 L 183.5 216 L 182.5 214 Z " /><path fill="rgb(255,255,255)" stroke="rgb(255,255,255)" stroke-width="1" opacity="0.19215686274509805" d="M 120.5 215 L 119.5 217 L 120.5 215 Z " /><path fill="rgb(255,255,255)" stroke="rgb(255,255,255)" stroke-width="1" opacity="0.19215686274509805" d="M 185.5 216 L 186.5 218 L 185.5 216 Z " /><path fill="rgb(255,255,255)" stroke="rgb(255,255,255)" stroke-width="1" opacity="0.19215686274509805" d="M 194.5 216 L 192.5 219 L 189.5 220 L 188.5 218 L 190.5 219 L 194.5 216 Z " /><path fill="rgb(255,255,255)" stroke="rgb(255,255,255)" stroke-width="1" opacity="0.19215686274509805" d="M 257.5 216 L 258.5 218 L 257.5 216 Z " /><path fill="rgb(255,255,255)" stroke="rgb(255,255,255)" stroke-width="1" opacity="0.19215686274509805" d="M 116.5 218 L 109.5 226 L 116.5 218 Z " /><path fill="rgb(255,255,255)" stroke="rgb(255,255,255)" stroke-width="1" opacity="0.19215686274509805" d="M 103.5 219 L 101.5 222 L 103.5 219 Z " /><path fill="rgb(255,255,255)" stroke="rgb(255,255,255)" stroke-width="1" opacity="0.19215686274509805" d="M 205.5 219 L 204.5 221 L 205.5 219 Z " /><path fill="rgb(255,255,255)" stroke="rgb(255,255,255)" stroke-width="1" opacity="0.19215686274509805" d="M 126.5 222 L 129 222.5 Q 123.8 223.3 121.5 227 L 124.5 223 L 126.5 222 Z " /><path fill="rgb(255,255,255)" stroke="rgb(255,255,255)" stroke-width="1" opacity="0.19215686274509805" d="M 163.5 222 L 167 223.5 L 165.5 223 Q 162.5 223.5 163.5 222 Z " /><path fill="rgb(255,255,255)" stroke="rgb(255,255,255)" stroke-width="1" opacity="0.19215686274509805" d="M 234.5 222 L 237 222.5 L 234.5 223 L 234.5 222 Z " /><path fill="rgb(255,255,255)" stroke="rgb(255,255,255)" stroke-width="1" opacity="0.19215686274509805" d="M 239.5 222 Q 243.3 221.3 244 223.5 L 242.5 223 Q 238.5 223.8 239.5 222 Z " /><path fill="rgb(255,255,255)" stroke="rgb(255,255,255)" stroke-width="1" opacity="0.19215686274509805" d="M 275.5 222 L 276.5 224 L 275.5 222 Z " /><path fill="rgb(255,255,255)" stroke="rgb(255,255,255)" stroke-width="1" opacity="0.19215686274509805" d="M 232.5 223 L 231.5 225 L 232.5 223 Z " /><path fill="rgb(255,255,255)" stroke="rgb(255,255,255)" stroke-width="1" opacity="0.19215686274509805" d="M 198.5 224 L 197.5 226 L 198.5 224 Z " /><path fill="rgb(255,255,255)" stroke="rgb(255,255,255)" stroke-width="1" opacity="0.19215686274509805" d="M 245.5 224 L 246.5 226 L 245.5 224 Z " /><path fill="rgb(255,255,255)" stroke="rgb(255,255,255)" stroke-width="1" opacity="0.19215686274509805" d="M 229.5 226 L 228.5 228 L 229.5 226 Z " /><path fill="rgb(255,255,255)" stroke="rgb(255,255,255)" stroke-width="1" opacity="0.19215686274509805" d="M 267.5 226 L 268.5 228 L 267.5 226 Z " /><path fill="rgb(255,255,255)" stroke="rgb(255,255,255)" stroke-width="1" opacity="0.19215686274509805" d="M 278.5 226 L 279.5 228 L 278.5 226 Z " /><path fill="rgb(255,255,255)" stroke="rgb(255,255,255)" stroke-width="1" opacity="0.19215686274509805" d="M 194.5 227 L 193.5 229 L 194.5 227 Z " /><path fill="rgb(255,255,255)" stroke="rgb(255,255,255)" stroke-width="1" opacity="0.19215686274509805" d="M 107.5 228 L 106.5 230 L 107.5 228 Z " /><path fill="rgb(255,255,255)" stroke="rgb(255,255,255)" stroke-width="1" opacity="0.19215686274509805" d="M 170.5 229 L 171 232.5 L 170 232.5 L 170.5 229 Z " /><path fill="rgb(255,255,255)" stroke="rgb(255,255,255)" stroke-width="1" opacity="0.19215686274509805" d="M 191.5 229 L 190.5 231 L 189 230.5 L 191.5 229 Z " /><path fill="rgb(255,255,255)" stroke="rgb(255,255,255)" stroke-width="1" opacity="0.19215686274509805" d="M 280.5 229 L 281.5 231 L 280.5 229 Z " /><path fill="rgb(255,255,255)" stroke="rgb(255,255,255)" stroke-width="1" opacity="0.19215686274509805" d="M 226.5 233 L 227 235.5 L 226 235.5 L 226.5 233 Z " /><path fill="rgb(255,255,255)" stroke="rgb(255,255,255)" stroke-width="1" opacity="0.19215686274509805" d="M 273.5 234 L 274.5 236 L 273.5 234 Z " /><path fill="rgb(255,255,255)" stroke="rgb(255,255,255)" stroke-width="1" opacity="0.19215686274509805" d="M 289.5 241 L 288.5 243 L 289.5 241 Z " /><path fill="rgb(255,255,255)" stroke="rgb(255,255,255)" stroke-width="1" opacity="0.19215686274509805" d="M 164.5 249 L 163.5 251 L 164.5 249 Z " /><path fill="rgb(255,255,255)" stroke="rgb(255,255,255)" stroke-width="1" opacity="0.19215686274509805" d="M 157.5 256 L 156.5 258 L 157.5 256 Z " /><path fill="rgb(255,255,255)" stroke="rgb(255,255,255)" stroke-width="1" opacity="0.19215686274509805" d="M 189.5 257 L 201 262.5 L 199.5 263 L 189.5 258 L 175.5 265 L 175.5 264 L 189.5 257 Z " /><path fill="rgb(255,255,255)" stroke="rgb(255,255,255)" stroke-width="1" opacity="0.19215686274509805" d="M 121.5 259 L 122.5 261 L 121.5 259 Z " /><path fill="rgb(255,255,255)" stroke="rgb(255,255,255)" stroke-width="1" opacity="0.19215686274509805" d="M 214.5 269 L 232 277.5 L 230.5 278 L 214.5 270 L 214.5 269 Z " /><path fill="rgb(255,255,255)" stroke="rgb(255,255,255)" stroke-width="1" opacity="0.19215686274509805" d="M 160.5 271 L 162 271.5 L 144.5 280 L 144.5 279 L 160.5 271 Z " /><path fill="rgb(255,255,255)" stroke="rgb(255,255,255)" stroke-width="1" opacity="0.19215686274509805" d="M 156.5 283 L 155.5 285 L 156.5 283 Z " /><path fill="rgb(255,255,255)" stroke="rgb(255,255,255)" stroke-width="1" opacity="0.19215686274509805" d="M 223.5 283 L 225 285.5 L 224 285.5 L 223.5 283 Z " /><path fill="rgb(255,255,255)" stroke="rgb(255,255,255)" stroke-width="1" opacity="0.19215686274509805" d="M 176.5 284 L 203.5 284 L 205 285.5 L 204.5 302 L 204 285 L 176 285 L 176 301.5 L 175 301.5 L 175 285.5 L 176.5 284 Z " /><path fill="rgb(255,255,255)" stroke="rgb(255,255,255)" stroke-width="1" opacity="0.19215686274509805" d="M 247.5 285 L 265 293.5 L 263.5 294 L 247.5 286 L 247.5 285 Z " /><path fill="rgb(255,255,255)" stroke="rgb(255,255,255)" stroke-width="1" opacity="0.19215686274509805" d="M 127.5 287 L 129 287.5 L 115.5 294 L 114.5 292 L 116.5 293 L 127.5 287 Z " /><path fill="rgb(255,255,255)" stroke="rgb(255,255,255)" stroke-width="1" opacity="0.19215686274509805" d="M 144.5 289 L 146 291.5 L 145 291.5 L 144.5 289 Z " /><path fill="rgb(255,255,255)" stroke="rgb(255,255,255)" stroke-width="1" opacity="0.19215686274509805" d="M 178.5 308 L 181.5 312 L 178.5 308 Z " /><path fill="rgb(255,255,255)" stroke="rgb(255,255,255)" stroke-width="1" opacity="0.19215686274509805" d="M 201.5 308 L 198.5 312 L 201.5 308 Z " /><path fill="rgb(255,255,255)" stroke="rgb(255,255,255)" stroke-width="1" opacity="0.19215686274509805" d="M 322.5 311 L 323 313.5 L 322 313.5 L 322.5 311 Z " /><path fill="rgb(255,255,255)" stroke="rgb(255,255,255)" stroke-width="1" opacity="0.19215686274509805" d="M 325.5 321 L 327 326.5 L 326 326.5 L 325.5 321 Z " /><path fill="rgb(255,255,255)" stroke="rgb(255,255,255)" stroke-width="1" opacity="0.19215686274509805" d="M 328.5 331 L 330 337.5 L 328 338.5 L 329 334.5 L 328.5 331 Z " /><path fill="rgb(255,255,255)" stroke="rgb(255,255,255)" stroke-width="1" opacity="0.19215686274509805" d="M 294.5 426 L 292.5 429 L 265.5 447 L 267.5 444 L 294.5 426 Z " /><path fill="rgb(255,255,255)" stroke="rgb(255,255,255)" stroke-width="1" opacity="0.19215686274509805" d="M 86.5 427 L 87.5 429 L 86.5 427 Z " /><path fill="rgb(255,255,255)" stroke="rgb(255,255,255)" stroke-width="1" opacity="0.19215686274509805" d="M 305.5 428 L 306 429.5 L 303 431.5 L 305.5 428 Z " /><path fill="rgb(255,255,255)" stroke="rgb(255,255,255)" stroke-width="1" opacity="0.19215686274509805" d="M 89.5 429 L 91.5 432 L 89.5 429 Z " /><path fill="rgb(255,255,255)" stroke="rgb(255,255,255)" stroke-width="1" opacity="0.19215686274509805" d="M 75.5 430 L 76.5 432 L 75.5 430 Z " /><path fill="rgb(255,255,255)" stroke="rgb(255,255,255)" stroke-width="1" opacity="0.19215686274509805" d="M 93.5 432 L 95.5 435 L 93.5 432 Z " /><path fill="rgb(255,255,255)" stroke="rgb(255,255,255)" stroke-width="1" opacity="0.19215686274509805" d="M 301.5 432 L 300.5 434 L 301.5 432 Z " /><path fill="rgb(255,255,255)" stroke="rgb(255,255,255)" stroke-width="1" opacity="0.19215686274509805" d="M 298.5 434 L 297.5 436 L 298.5 434 Z " /><path fill="rgb(255,255,255)" stroke="rgb(255,255,255)" stroke-width="1" opacity="0.19215686274509805" d="M 82.5 435 L 83.5 437 L 82.5 435 Z " /><path fill="rgb(255,255,255)" stroke="rgb(255,255,255)" stroke-width="1" opacity="0.19215686274509805" d="M 97.5 435 L 98.5 437 L 97.5 435 Z " /><path fill="rgb(255,255,255)" stroke="rgb(255,255,255)" stroke-width="1" opacity="0.19215686274509805" d="M 295.5 436 L 294.5 438 L 295.5 436 Z " /><path fill="rgb(255,255,255)" stroke="rgb(255,255,255)" stroke-width="1" opacity="0.19215686274509805" d="M 100.5 437 L 102.5 440 L 100.5 437 Z " /><path fill="rgb(255,255,255)" stroke="rgb(255,255,255)" stroke-width="1" opacity="0.19215686274509805" d="M 292.5 438 L 291.5 440 L 292.5 438 Z " /><path fill="rgb(255,255,255)" stroke="rgb(255,255,255)" stroke-width="1" opacity="0.19215686274509805" d="M 89.5 440 L 90.5 442 L 89.5 440 Z " /><path fill="rgb(255,255,255)" stroke="rgb(255,255,255)" stroke-width="1" opacity="0.19215686274509805" d="M 104.5 440 L 105.5 442 L 104.5 440 Z " /><path fill="rgb(255,255,255)" stroke="rgb(255,255,255)" stroke-width="1" opacity="0.19215686274509805" d="M 289.5 440 L 288.5 442 L 289.5 440 Z " /><path fill="rgb(255,255,255)" stroke="rgb(255,255,255)" stroke-width="1" opacity="0.19215686274509805" d="M 107.5 442 L 109.5 445 L 107.5 442 Z " /><path fill="rgb(255,255,255)" stroke="rgb(255,255,255)" stroke-width="1" opacity="0.19215686274509805" d="M 111.5 445 L 112.5 447 L 111.5 445 Z " /><path fill="rgb(255,255,255)" stroke="rgb(255,255,255)" stroke-width="1" opacity="0.19215686274509805" d="M 116.5 446 L 117 447.5 Q 115.5 450.5 114 447.5 L 116 447.5 L 116.5 446 Z " /><path fill="rgb(255,255,255)" stroke="rgb(255,255,255)" stroke-width="1" opacity="0.19215686274509805" d="M 263.5 447 L 262.5 449 L 263.5 447 Z " /><path fill="rgb(255,255,255)" stroke="rgb(255,255,255)" stroke-width="1" opacity="0.19215686274509805" d="M 100.5 448 L 101.5 450 L 100.5 448 Z " /><path fill="rgb(255,255,255)" stroke="rgb(255,255,255)" stroke-width="1" opacity="0.19215686274509805" d="M 107.5 453 L 108.5 455 L 107.5 453 Z " /><path fill="rgb(255,255,255)" stroke="rgb(255,255,255)" stroke-width="1" opacity="0.19215686274509805" d="M 255.5 462 L 253.5 465 L 251.5 466 L 252.5 464 L 255.5 462 Z " /><path fill="rgb(255,255,255)" stroke="rgb(255,255,255)" stroke-width="1" opacity="0.19215686274509805" d="M 126.5 465 L 134 469.5 L 132.5 469 Q 126.9 468.2 126.5 465 Z " /><path fill="rgb(255,255,255)" stroke="rgb(255,255,255)" stroke-width="1" opacity="0.19215686274509805" d="M 247.5 467 L 246.5 469 L 242.5 471 L 243.5 469 L 247.5 467 Z " /><path fill="rgb(255,255,255)" stroke="rgb(255,255,255)" stroke-width="1" opacity="0.19215686274509805" d="M 240.5 471 L 239.5 473 L 235.5 475 L 236.5 473 L 240.5 471 Z " /><path fill="rgb(255,255,255)" stroke="rgb(255,255,255)" stroke-width="1" opacity="0.19215686274509805" d="M 139.5 472 L 145 475.5 L 143.5 475 Q 139.5 474.5 139.5 472 Z " /><path fill="rgb(255,255,255)" stroke="rgb(255,255,255)" stroke-width="1" opacity="0.19215686274509805" d="M 231.5 476 L 230.5 478 L 226.5 480 L 227.5 478 L 231.5 476 Z " /><path fill="rgb(255,255,255)" stroke="rgb(255,255,255)" stroke-width="1" opacity="0.19215686274509805" d="M 247.5 477 L 246.5 479 L 247.5 477 Z " /><path fill="rgb(255,255,255)" stroke="rgb(255,255,255)" stroke-width="1" opacity="0.19215686274509805" d="M 150.5 478 L 158 482.5 L 156.5 482 Q 150.9 481.2 150.5 478 Z " /><path fill="rgb(255,255,255)" stroke="rgb(255,255,255)" stroke-width="1" opacity="0.19215686274509805" d="M 224.5 480 L 223.5 482 L 219.5 484 L 220.5 482 L 224.5 480 Z " /><path fill="rgb(255,255,255)" stroke="rgb(255,255,255)" stroke-width="1" opacity="0.19215686274509805" d="M 163.5 485 L 169 488.5 L 167.5 488 Q 163.5 487.5 163.5 485 Z " /><path fill="rgb(255,255,255)" stroke="rgb(255,255,255)" stroke-width="1" opacity="0.19215686274509805" d="M 215.5 485 L 214.5 487 L 212.5 488 L 213.5 486 L 215.5 485 Z " /><path fill="rgb(255,255,255)" stroke="rgb(255,255,255)" stroke-width="1" opacity="0.19215686274509805" d="M 231.5 486 L 230.5 488 L 231.5 486 Z " /><path fill="rgb(255,255,255)" stroke="rgb(255,255,255)" stroke-width="1" opacity="0.19215686274509805" d="M 208.5 489 L 207.5 491 L 203.5 493 L 204.5 491 L 208.5 489 Z " /><path fill="rgb(255,255,255)" stroke="rgb(255,255,255)" stroke-width="1" opacity="0.19215686274509805" d="M 174.5 491 L 182 495.5 L 180.5 495 Q 174.9 494.2 174.5 491 Z " /><path fill="rgb(255,255,255)" stroke="rgb(255,255,255)" stroke-width="1" opacity="0.19215686274509805" d="M 199.5 494 L 198.5 496 L 196.5 497 L 197.5 495 L 199.5 494 Z " /><path fill="rgb(255,255,255)" stroke="rgb(255,255,255)" stroke-width="1" opacity="0.19215686274509805" d="M 187.5 498 L 191.5 499 L 193 498.5 Q 192.3 500.8 188.5 500 L 187.5 498 Z " /></svg>